# xmcd
#
# Track frame offsets:
#	150
#	11236
#	23188
#	35796
#	48257
#	61729
#	73423
#	84994
#	96393
#	109026
#	120789
#	131871
#	144571
#	158285
#	171168
#	183596
#	197099
#	209807
#	224234
#	234902
#	246260
#	256245
#	269608
#	283040
#	297397
#
# Disc length: 4119 seconds
#
# Revision: 1
# Processed by: cddbd v1.5.1PL2 Copyright (c) Steve Scherf et al.
# Submitted via: audiograbber 1.83.01
#
DISCID=86101519
DTITLE=Various Artist - The R&B Years 1948 Disk 4
DYEAR=1900
DGENRE=R&B
TTITLE0=Gene Phillips - Flying Home
TTITLE1=Clyde Bernhardt - I'm Crazy Bout that Boogie
TTITLE2=Dinah Washington - Am I Asking too Much
TTITLE3=Todd Rhodes - Sportee's Jump
TTITLE4=Roy Milton - Everything I do is Wrong
TTITLE5=Paul Williams - Waxey Maxie
TTITLE6=Roy Milton - Hop, Skip and Jump
TTITLE7=Cecil Gant - Another Day another Dollar
TTITLE8=Joe Liggins - Spook's holiday
TTITLE9=Tom Archia - Downfall Blues
TTITLE10=Jay McShann - M.R. Boogie
TTITLE11=Three Blazers - More than You Know
TTITLE12=Pee Wee Crayton - Blues After Hours
TTITLE13=Buddy Johnson - You Better Change Your ways
TTITLE14=Marion Abernathy - Little John Blues
TTITLE15=Crown Prince Waterford - P.I. Blues
TTITLE16=Amos Milburn - Chicken Shack Boogie
TTITLE17=Eddie "Lockjaw" Davis - Leapin' on Lenox
TTITLE18=Joe Swift - What's Your Name
TTITLE19=Earl Bostic - Disc Jockey's Nightmare
TTITLE20=Blue Lu Barker - A Little Bird told Me
TTITLE21=Amos Milbuen - Bewildered
TTITLE22=Pee Wee Crayton - Texas Hop
TTITLE23=Tina Dixon - Parrot Bar Boogie
TTITLE24=Louis Jordan - Pettin' and Pokin'
EXTD=
EXTT0=
EXTT1=
EXTT2=
EXTT3=
EXTT4=
EXTT5=
EXTT6=
EXTT7=
EXTT8=
EXTT9=
EXTT10=
EXTT11=
EXTT12=
EXTT13=
EXTT14=
EXTT15=
EXTT16=
EXTT17=
EXTT18=
EXTT19=
EXTT20=
EXTT21=
EXTT22=
EXTT23=
EXTT24=
PLAYORDER=
